HIERARCHY
ROOT Hips
{
	OFFSET 0.000000 0.000000 0.000000 
	CHANNELS 6 Xposition Yposition Zposition Yrotation Zrotation Xrotation 
	JOINT Lumbar
	{
		OFFSET 0.000000 0.000000 0.000000 
		CHANNELS 3 Zrotation Xrotation Yrotation
		JOINT Neck
		{
			OFFSET 0.000000 0.445665 0.000000 
			CHANNELS 3 Zrotation Xrotation Yrotation
			End Site
			{
				OFFSET 0.000000 0.227535 0.000000 
			}
		}
		JOINT RightShoulder
		{
			OFFSET 0.019635 0.377685 0.194865 
			CHANNELS 3 Zrotation Xrotation Yrotation
			JOINT RightElbow
			{
				OFFSET 0.000000 -0.243375 0.000000 
				CHANNELS 2 Zrotation Yrotation
				JOINT RightWrist
				{
					OFFSET 0.000000 -0.264825 0.000000 
					CHANNELS 2 Zrotation Xrotation
					End Site
					{
						OFFSET 0.006600 -0.176220 0.000990 
					}
				}
			}
		}
		JOINT LeftShoulder
		{
			OFFSET 0.019635 0.377685 -0.194865 
			CHANNELS 3 Zrotation Xrotation Yrotation
			JOINT LeftElbow
			{
				OFFSET 0.000000 -0.243375 0.000000 
				CHANNELS 2 Zrotation Yrotation
				JOINT LeftWrist
				{
					OFFSET 0.000000 -0.264825 0.000000 
					CHANNELS 2 Zrotation Xrotation
					End Site
					{
						OFFSET 0.006600 -0.176220 -0.000990 
					}
				}
			}
		}
	}
	JOINT RightHip
	{
		OFFSET 0.052140 -0.069960 0.075570 
		CHANNELS 3 Zrotation Xrotation Yrotation
		JOINT RightKnee
		{
			OFFSET 0.000000 -0.402270 0.000000 
			CHANNELS 1 Zrotation
			JOINT RightAnkle
			{
				OFFSET 0.000000 -0.404085 0.000000 
				CHANNELS 3 Zrotation Xrotation Yrotation
				End Site
				{
					OFFSET 0.204105 -0.089430 0.008415 
				}
			}
		}
	}
	JOINT LeftHip
	{
		OFFSET 0.052140 -0.069960 -0.075570 
		CHANNELS 3 Zrotation Xrotation Yrotation
		JOINT LeftKnee
		{
			OFFSET 0.000000 -0.402270 0.000000 
			CHANNELS 1 Zrotation
			JOINT LeftAnkle
			{
				OFFSET 0.000000 -0.404085 0.000000 
				CHANNELS 3 Zrotation Xrotation Yrotation
				End Site
				{
					OFFSET 0.204105 -0.089430 -0.008415 
				}
			}
		}
	}
}
MOTION
Frames: 36
Frame Time: 0.02
0 0.95578 -0 184.12489 0 -3.99449 5.83675 5.56783 -3.7197 -8.36963 2.08723 -0.95266 3.74984 -9.98331 6.1286 8.43443 79.48487 -1.68107 -0.12836 5.67768 6.08832 -8.89386 7.84181 -77.39093 -3.69227 -0.01138 -5.51682 8.29207 1.525 -3.72166 2.57565 -4.21597 -5.8569 -3.35776 2.05874 -13.67007 -6.15949 7.44594 6.62038 7.45298
-0.00012 0.95577 7e-05 184.116 0 -3.9989 5.84659 5.55577 -3.64584 -8.40183 2.09201 -0.99581 3.77913 -9.97834 6.10773 8.42796 79.4853 -1.68114 -0.12532 5.70937 6.09581 -8.88557 7.8404 -77.33542 -3.68602 -0.00948 -5.52984 8.34158 3.01873 -3.71832 2.43675 -4.40247 -7.35344 -3.3732 2.05798 -13.70907 -6.14609 7.458 6.55173 7.50467
-0.00023 0.95575 0.00013 184.10712 0 -4.0033 5.85642 5.54378 -3.57242 -8.4339 2.09674 -1.03869 3.80825 -9.97335 6.08703 8.42153 79.48572 -1.68121 -0.1223 5.74084 6.10329 -8.87713 7.83899 -77.28028 -3.67985 -0.00758 -5.5428 8.3907 4.50133 -3.71503 2.2989 -4.58743 -8.83879 -3.3886 2.05723 -13.7476 -6.13273 7.46999 6.48348 7.55588
-0.00034 0.95573 0.0002 184.09847 0 -4.00765 5.86624 5.53192 -3.50036 -8.46569 2.10129 -1.08088 3.83701 -9.96836 6.06708 8.41528 79.48615 -1.6813 -0.11942 5.77176 6.11069 -8.86797 7.83754 -77.22643 -3.67391 -0.00567 -5.55558 8.4388 5.95401 -3.71188 2.16378 -4.76841 -10.29414 -3.40386 2.05649 -13.785 -6.11952 7.48181 6.41618 7.60573
-0.00046 0.95571 0.00027 184.08892 0 -4.0122 5.87605 5.51936 -3.42148 -8.49889 2.10676 -1.12669 3.86772 -9.96353 6.04349 8.40815 79.48654 -1.68132 -0.1159 5.8056 6.1184 -8.86262 7.83625 -77.16616 -3.66671 -0.0038 -5.56924 8.49237 7.56531 -3.70798 2.01406 -4.9709 -11.90869 -3.4197 2.0557 -13.82882 -6.10564 7.49449 6.34383 7.66286
-0.00057 0.95569 0.00033 184.08108 0 -4.01635 5.88591 5.50829 -3.35685 -8.52913 2.11027 -1.16482 3.89427 -9.95828 6.02743 8.40286 79.48701 -1.68146 -0.11366 5.83321 6.1255 -8.84923 7.83468 -77.11926 -3.66219 -0.00184 -5.58105 8.53431 8.83945 -3.70566 1.89549 -5.12741 -13.18468 -3.4344 2.05501 -13.85875 -6.09309 7.50537 6.28224 7.70447
-0.00068 0.95568 0.00042 184.07962 0 -4.01936 5.89577 5.50109 -3.33329 -8.5512 2.1084 -1.1817 3.90966 -9.95229 6.03404 8.40298 79.4877 -1.68227 -0.11572 5.84388 6.13068 -8.81225 7.83191 -77.11152 -3.66518 0.00024 -5.58767 8.54414 9.18208 -3.70781 1.86205 -5.15874 -13.5268 -3.44531 2.05444 -13.85224 -6.08483 7.51133 6.24972 7.70338
-0.00078 0.95568 0.0005 184.0796 0 -4.022 5.90571 5.49542 -3.3238 -8.5703 2.10456 -1.19084 3.9208 -9.94581 6.04791 8.40492 79.48848 -1.68316 -0.11895 5.84823 6.13528 -8.7674 7.82894 -77.11691 -3.67084 0.00243 -5.59243 8.5422 9.18339 -3.71153 1.86031 -5.14328 -13.52591 -3.45517 2.05399 -13.83144 -6.07782 7.51549 6.22815 7.68664
-0.00089 0.95568 0.00059 184.07782 0 -4.02486 5.91574 5.48918 -3.30668 -8.59081 2.10153 -1.20357 3.93368 -9.93922 6.05728 8.40585 79.48917 -1.6838 -0.12115 5.85531 6.14038 -8.72699 7.82635 -77.11475 -3.67521 0.00463 -5.5981 8.54571 9.34335 -3.71446 1.84448 -5.14812 -13.68341 -3.46598 2.05358 -13.81585 -6.06975 7.52048 6.20191 7.67689
-0.00099 0.95567 0.00068 184.0806 0 -4.02748 5.92532 5.4824 -3.29463 -8.61113 2.09874 -1.216 3.94736 -9.93391 6.07179 8.40757 79.48998 -1.68533 -0.12538 5.86295 6.1446 -8.68284 7.82256 -77.11903 -3.67993 0.00656 -5.60355 8.54897 9.49415 -3.71771 1.82689 -5.15721 -13.83594 -3.47491 2.05279 -13.80539 -6.06359 7.52541 6.17432 7.66743
-0.0011 0.95567 0.00076 184.07436 0 -4.03051 5.93576 5.47713 -3.27554 -8.63107 2.0951 -1.22717 3.95841 -9.92597 6.07725 8.40805 79.49066 -1.68506 -0.12572 5.86797 6.15037 -8.64472 7.8212 -77.1133 -3.68453 0.00907 -5.60895 8.54974 9.57565 -3.72064 1.82103 -5.14609 -13.91017 -3.48735 2.05278 -13.78125 -6.05395 7.53004 6.15223 7.65392
-0.00126 0.95567 0.00082 184.04189 0 -4.03469 5.9493 5.47553 -3.23218 -8.65124 2.08863 -1.23736 3.96303 -9.90952 6.05628 8.40475 79.49018 -1.67944 -0.11453 5.86682 6.16182 -8.62421 7.82679 -77.0743 -3.68826 0.01326 -5.61513 8.54861 9.61637 -3.72251 1.83508 -5.0929 -13.91827 -3.51114 2.05516 -13.71935 -6.03272 7.53411 6.14174 7.63087
-0.00143 0.95567 0.00088 184.00052 0 -4.03929 5.96355 5.47543 -3.18153 -8.67103 2.08154 -1.24645 3.96523 -9.89067 6.02581 8.4001 79.48968 -1.67208 -0.09948 5.86335 6.17464 -8.61019 7.8348 -77.02521 -3.69174 0.01802 -5.62123 8.54507 9.58952 -3.72395 1.86054 -5.02056 -13.85001 -3.53825 2.05827 -13.64485 -6.00826 7.53794 6.13655 7.60468
-0.00159 0.95566 0.00095 183.96381 0 -4.04375 5.97697 5.47475 -3.13508 -8.69058 2.0754 -1.25562 3.96865 -9.87381 5.99955 8.39602 79.48977 -1.66576 -0.08655 5.86122 6.18598 -8.59382 7.84159 -76.98235 -3.69523 0.02247 -5.62705 8.54114 9.546 -3.72544 1.88414 -4.95547 -13.76966 -3.56292 2.06089 -13.57841 -5.98641 7.54198 6.12953 7.58143
-0.00177 0.95566 0.00101 183.9244 0 -4.04799 5.99253 5.47371 -3.08527 -8.71166 2.06645 -1.2662 3.97131 -9.8532 5.97429 8.39223 79.4876 -1.65837 -0.07214 5.8576 6.20081 -8.5747 7.84891 -76.93307 -3.69925 0.02716 -5.6341 8.54269 9.67878 -3.72758 1.8956 -4.89487 -13.86291 -3.59148 2.0642 -13.50157 -5.95984 7.54561 6.12048 7.55139
-0.0019 0.95566 0.00108 183.88868 0 -4.05277 6.00382 5.47372 -3.04069 -8.72962 2.06312 -1.2738 3.97517 -9.83976 5.94424 8.38743 79.4899 -1.6528 -0.05986 5.8567 6.20883 -8.56292 7.85567 -76.89453 -3.70209 0.03146 -5.63864 8.53288 9.44757 -3.72828 1.93365 -4.82099 -13.59595 -3.61276 2.06621 -13.44364 -5.94224 7.54998 6.11673 7.53479
-0.00192 0.95566 0.00115 183.86333 0 -4.05928 6.00287 5.47652 -3.01106 -8.73833 2.07625 -1.2725 3.9822 -9.84735 5.90391 8.38048 79.50625 -1.65275 -0.05456 5.8632 6.19695 -8.57037 7.86043 -76.88842 -3.70153 0.03475 -5.63588 8.48821 8.09776 -3.72468 2.051 -4.71575 -12.22088 -3.61294 2.06461 -13.44045 -5.95095 7.55701 6.12658 7.55742
-0.0019 0.95565 0.00124 183.8423 0 -4.06625 5.99765 5.48028 -2.98708 -8.74416 2.09482 -1.26846 3.99089 -9.86201 5.85722 8.37223 79.5267 -1.65457 -0.05147 5.87275 6.17844 -8.58505 7.86452 -76.89334 -3.69981 0.03762 -5.63066 8.43289 6.40682 -3.71972 2.1931 -4.59821 -10.50912 -3.60575 2.06163 -13.45683 -5.96866 7.5647 6.14147 7.59352
-0.0019 0.95565 0.00132 183.82065 0 -4.07277 5.99454 5.48337 -2.96135 -8.75169 2.11053 -1.26634 3.99906 -9.87317 5.81522 8.36469 79.54421 -1.6555 -0.04734 5.88126 6.16331 -8.59598 7.86881 -76.89295 -3.69876 0.04056 -5.62687 8.38532 4.96307 -3.71561 2.31784 -4.48576 -9.04397 -3.60206 2.05917 -13.46474 -5.98176 7.57173 6.15382 7.62265
-0.0019 0.95564 0.00139 183.79325 0 -4.0803 5.99072 5.48738 -2.93209 -8.75715 2.12827 -1.26135 4.00529 -9.88598 5.77242 8.35768 79.56652 -1.65655 -0.0434 5.88787 6.14619 -8.60861 7.87356 -76.89352 -3.69713 0.04397 -5.62187 8.32581 3.14062 -3.71045 2.46815 -4.37356 -7.19398 -3.5978 2.05717 -13.47068 -5.99694 7.58027 6.16745 7.65526
-0.00189 0.95564 0.00148 183.77865 0 -4.08587 5.9874 5.48984 -2.91139 -8.76676 2.14255 -1.26168 4.01709 -9.89643 5.72097 8.34793 79.57949 -1.6578 -0.03942 5.89965 6.13224 -8.61993 7.87724 -76.89478 -3.69639 0.04634 -5.61868 8.28813 2.0106 -3.70723 2.57176 -4.25966 -6.05007 -3.59297 2.0539 -13.48523 -6.00996 7.58585 6.17952 7.68384
-0.00188 0.95564 0.0016 183.80073 0 -4.08568 5.98599 5.48654 -2.91483 -8.78451 2.15046 -1.27746 4.03519 -9.90412 5.71247 8.34246 79.56768 -1.66028 -0.03684 5.92145 6.1236 -8.62119 7.87747 -76.89582 -3.69875 0.04555 -5.62208 8.31805 3.01993 -3.70926 2.53283 -4.13108 -7.08439 -3.58818 2.04735 -13.52114 -6.01482 7.58269 6.18599 7.698
-0.00187 0.95564 0.00172 183.83491 0 -4.08355 5.98533 5.48194 -2.92618 -8.80761 2.15375 -1.29858 4.06109 -9.90829 5.67576 8.33213 79.54552 -1.66332 -0.03388 5.94933 6.11945 -8.62194 7.87671 -76.89711 -3.702 0.04369 -5.62718 8.36947 4.71359 -3.71342 2.44727 -4.00346 -8.81598 -3.58316 2.03959 -13.56438 -6.01709 7.57657 6.19067 7.70758
-0.00186 0.95564 0.00184 183.86232 0 -4.08247 5.98461 5.47867 -2.93295 -8.83048 2.15634 -1.31736 4.0883 -9.91034 5.61882 8.31644 79.52734 -1.66452 -0.02963 5.97634 6.1164 -8.62567 7.8769 -76.898 -3.70455 0.04272 -5.63092 8.40788 5.99725 -3.71688 2.38809 -3.8844 -10.13046 -3.57821 2.03243 -13.60317 -6.02072 7.57214 6.19622 7.7193
-0.00185 0.95564 0.00196 183.8962 0 -4.08067 5.98244 5.47208 -2.94484 -8.84262 2.17141 -1.33611 4.0925 -9.9279 5.73228 8.33261 79.51414 -1.66982 -0.03122 5.99415 6.09931 -8.61716 7.87518 -76.90055 -3.70818 0.04047 -5.6372 8.45941 7.67799 -3.71902 2.30837 -3.72812 -11.84831 -3.5728 2.02499 -13.64858 -6.0244 7.56643 6.20181 7.73145
-0.00183 0.95564 0.00208 183.9182 0 -4.07995 5.98367 5.47237 -2.94692 -8.8801 2.15871 -1.35568 4.14968 -9.91281 5.44523 8.28136 79.4858 -1.67003 -0.02106 6.03415 6.11334 -8.63508 7.87693 -76.89947 -3.70995 0.04009 -5.63845 8.48909 8.70986 -3.72459 2.25943 -3.64825 -12.906 -3.56884 2.0179 -13.68016 -6.02661 7.56247 6.20671 7.74117
-0.0018 0.95563 0.00221 183.91447 0 -4.08234 5.99307 5.48956 -2.92819 -8.97265 2.07587 -1.38073 4.32475 -9.80479 4.40994 8.0448 79.43895 -1.62634 0.02615 6.12052 6.20579 -8.71512 7.89102 -76.88906 -3.70497 0.04981 -5.62664 8.45125 7.68793 -3.73776 2.31196 -3.79235 -11.88547 -3.56528 2.01184 -13.68425 -6.03074 7.56577 6.21117 7.74781
-0.00175 0.95561 0.00234 183.89615 0 -4.08598 6.00615 5.5142 -2.89787 -9.09355 1.96447 -1.4055 4.55848 -9.66562 2.91945 7.74095 79.37439 -1.58228 0.08428 6.23174 6.3304 -8.82294 7.9082 -76.87481 -3.69832 0.06062 -5.60943 8.39111 6.0088 -3.75463 2.39599 -4.01107 -10.19373 -3.56396 2.00624 -13.67142 -6.03246 7.57067 6.21475 7.75164
-0.00171 0.9556 0.00247 183.8783 0 -4.08922 6.01813 5.53692 -2.86724 -9.2098 1.8622 -1.42754 4.78186 -9.5419 1.39165 7.46772 79.3029 -1.55882 0.1344 6.34009 6.44483 -8.92631 7.9223 -76.86175 -3.6934 0.06779 -5.59394 8.3425 4.6943 -3.77058 2.46218 -4.18684 -8.86691 -3.56403 2.00059 -13.6584 -6.03168 7.57365 6.21805 7.75503
-0.00167 0.95558 0.00258 183.88815 0 -4.0915 6.0274 5.5532 -2.8599 -9.28953 1.77489 -1.46216 4.93393 -9.40877 0.84296 7.19284 79.28984 -1.45223 0.19755 6.41217 6.54167 -8.99866 7.94337 -76.85096 -3.68455 0.088 -5.58182 8.2887 3.12485 -3.78304 2.54171 -4.40016 -7.3126 -3.55378 1.99417 -13.68015 -6.04585 7.58134 6.22427 7.76548
-0.00162 0.95558 0.00273 183.83511 0 -4.09632 6.04358 5.58497 -2.80185 -9.45443 1.65113 -1.47001 5.25181 -9.2927 -1.7891 6.90714 79.15658 -1.51481 0.23594 6.56677 6.6815 -9.13783 7.95077 -76.83464 -3.68329 0.08155 -5.56111 8.24019 1.92166 -3.80404 2.60145 -4.55376 -6.06217 -3.56575 1.98954 -13.62381 -6.02851 7.57992 6.2241 7.76065
-0.00158 0.95565 0.00294 183.62546 0 -4.106 6.07459 5.65522 -2.601 -9.82737 1.42116 -1.40834 5.98467 -9.18928 -10.60674 6.59459 78.64753 -2.0773 0.20659 6.93407 6.94315 -9.49401 7.91921 -76.80319 -3.70504 -0.00053 -5.52036 8.21127 1.88636 -3.84412 2.59975 -4.51743 -5.82514 -3.63693 1.9892 -13.3698 -5.9236 7.55054 6.20778 7.71456
-0.00154 0.95574 0.00319 183.35052 0 -4.11851 6.11315 5.7413 -2.35059 -10.28925 1.15774 -1.31936 6.88835 -9.11132 -21.40135 6.27666 78.02681 -2.8035 0.15228 7.3856 7.24523 -9.91029 7.87419 -76.76649 -3.73417 -0.10906 -5.47072 8.18843 2.23961 -3.8933 2.57713 -4.41959 -5.91168 -3.7306 1.99074 -13.03554 -5.78753 7.51247 6.18499 7.65342
-0.0015 0.95582 0.00342 183.09647 0 -4.13097 6.15032 5.82179 -2.12641 -10.72307 0.91804 -1.2394 7.73165 -9.05016 -30.9368 5.96916 77.48933 -3.43388 0.10602 7.80407 7.52113 -10.27178 7.83525 -76.73273 -3.75882 -0.20444 -5.42358 8.16304 2.41451 -3.94069 2.56363 -4.3545 -5.84011 -3.81521 1.99184 -12.72846 -5.66619 7.47991 6.16415 7.59875
-0.00143 0.9559 0.00365 182.8787 0 -4.13834 6.17858 5.89575 -1.88586 -11.10385 0.64186 -1.17184 8.50141 -8.87087 -42.02032 5.62282 76.81554 -4.15652 0.07015 8.19996 7.8297 -10.74548 7.7953 -76.69646 -3.78811 -0.30494 -5.3827 8.13601 2.57488 -3.97842 2.55265 -4.27221 -5.79257 -3.8955 1.99134 -12.45853 -5.54138 7.44055 6.14685 7.54456
-0.00143 0.95599 0.00389 182.57041 0 -4.15688 6.22768 5.98699 -1.66818 -11.61818 0.43345 -1.07436 9.46762 -8.94066 -50.33135 5.36046 76.39751 -4.72356 0.01145 8.66437 8.08118 -11.00537 7.75581 -76.66427 -3.80958 -0.40056 -5.32682 8.11412 2.86563 -4.03824 2.53128 -4.20959 -5.78007 -3.98949 1.99444 -12.09426 -5.41764 7.4136 6.12144 7.48706
